<svg width="768" height="429" viewBox="0 0 768 429" fill="none" xmlns="http://www.w3.org/2000/svg">
<g clip-path="url(#clip0)">
<path opacity="0.1" d="M709.117 339.232C708.261 341.168 707.408 343.077 706.557 344.961C705.23 347.887 703.92 350.757 702.626 353.569C702.051 354.816 701.476 356.039 700.915 357.262C694.573 370.863 688.65 382.893 683.62 392.787C679.056 401.751 672.279 409.262 664 414.533C655.72 419.804 646.242 422.64 636.559 422.746L524.713 424.023H523.533L513.945 424.131L505.744 424.224L480.594 424.511H479.577L466.773 424.658H466.382L387.467 425.556L317.026 426.33L308.832 426.423L257.943 427.003H257.884L224.88 427.375H224.525L120.166 428.559L88.9462 428.915C82.2839 428.994 75.6497 427.997 69.2764 425.958C58.1856 422.442 48.2181 415.818 40.4465 406.799C27.0383 391.293 17.2661 373.201 10.7021 353.569C9.75316 350.736 8.86813 347.867 8.04702 344.961C-14.6761 264.335 13.0253 160.315 62.882 90.7054C64.9717 87.7947 67.0958 84.9562 69.2543 82.19L69.3059 82.1281C84.639 62.3723 101.831 45.8678 120.144 34.132C152.595 13.3001 188.549 7.43222 223.913 24.9198C253.835 39.7212 281.772 46.6806 308.854 48.5695C311.59 48.7553 314.327 48.8947 317.048 48.9798C379.17 51.0313 437.39 27.5364 505.759 12.3712C508.48 11.7673 511.209 11.1713 513.96 10.6062C562.733 0.418593 616.837 -4.95387 681.179 6.3407C687.864 7.48692 694.46 9.14278 700.915 11.2951C703.752 12.2551 706.486 13.2872 709.117 14.3917C739.827 27.5054 756.576 51.7357 763.694 82.0971C764.367 84.9149 764.95 87.7818 765.441 90.6977C778.061 163.729 741.103 267.323 709.117 339.232Z" fill="#5DD9C1"/>
<g opacity="0.1">
<path opacity="0.1" d="M120.143 34.1314V428.644L88.9235 429C82.2612 429.079 75.627 428.082 69.2537 426.043V82.1275H69.3053C84.6384 62.3485 101.83 45.844 120.143 34.1314Z" fill="#5DD9C1"/>
<path opacity="0.1" d="M765.478 90.7049H62.8814C64.9711 87.7942 67.0951 84.9557 69.2536 82.1895V82.1275H763.73C764.403 84.9299 764.986 87.789 765.478 90.7049Z" fill="#5DD9C1"/>
<path opacity="0.1" d="M709.116 14.3988V344.953H706.557C705.229 347.879 703.919 350.748 702.626 353.561C702.051 354.807 701.475 356.03 700.915 357.254V11.2713C703.752 12.2313 706.485 13.2737 709.116 14.3988Z" fill="#5DD9C1"/>
<path opacity="0.1" d="M513.959 10.5824V424.162L505.758 424.255V12.3474C508.48 11.7436 511.208 11.1475 513.959 10.5824Z" fill="#5DD9C1"/>
<path opacity="0.1" d="M317.047 48.956V426.407L308.854 426.5V48.5457C311.59 48.7315 314.326 48.8399 317.047 48.956Z" fill="#5DD9C1"/>
<path opacity="0.1" d="M706.557 344.96C705.229 347.887 703.919 350.756 702.626 353.569H10.7015C9.75253 350.735 8.8675 347.866 8.04639 344.96H706.557Z" fill="#5DD9C1"/>
</g>
<path d="M170.073 205.787H156.06V250.424H170.073V205.787Z" fill="#3F3D56"/>
<path d="M547.192 203.465H533.179V250.687H547.192V203.465Z" fill="#3F3D56"/>
<path d="M636.558 413.115V423.179L524.513 424.262L523.319 424.286L480.734 424.696L479.716 424.711L466.773 424.827H466.389L387.489 425.594L257.972 426.856H257.861L224.931 427.181L224.577 427.189L78.2515 428.597V416.986L112.657 395.31L181.689 394.706L183.164 394.698L183.651 394.691L185.126 394.667L218.271 394.381L219.753 394.373L220.225 394.365L221.7 394.358L232.328 394.265L232.608 394.257L258.827 394.025H259.041L463.631 392.213L468.638 392.175H469.14L472.96 392.136L500.728 391.896L502.203 391.873L503.568 391.857H504.276L512.912 391.788L514.623 391.764L516.917 391.749L524.108 391.679L535.517 391.579L536.992 391.563L539.559 391.548H540.038L595.139 391.052L636.558 413.115Z" fill="#65617D"/>
<path opacity="0.2" d="M636.558 413.115V423.179L524.513 424.262L523.319 424.286L480.734 424.696L479.716 424.711L466.773 424.827H466.389L387.489 425.594L257.972 426.856H257.861L224.931 427.181L224.577 427.189L78.2515 428.597V416.986L112.657 395.31L181.689 394.706L183.164 394.698L183.651 394.691L185.126 394.667L218.271 394.381L219.753 394.373L220.225 394.365L221.7 394.358L232.328 394.265L232.608 394.257L258.827 394.025H259.041L463.631 392.213L468.638 392.175H469.14L472.96 392.136L500.728 391.896L502.203 391.873L503.568 391.857H504.276L512.912 391.788L514.623 391.764L516.917 391.749L524.108 391.679L535.517 391.579L536.992 391.563L539.559 391.548H540.038L595.139 391.052L636.558 413.115Z" fill="black"/>
<path d="M218.381 374.416V393.374C218.382 394.272 218.139 395.152 217.682 395.911C217.226 396.67 216.573 397.278 215.8 397.663C215.225 397.956 214.596 398.114 213.956 398.128L188.217 398.7C187.529 398.718 186.847 398.567 186.225 398.259C185.439 397.881 184.773 397.273 184.306 396.509C183.839 395.744 183.591 394.855 183.592 393.947V374.416H218.381Z" fill="#3F3D56"/>
<path opacity="0.1" d="M218.381 374.416V393.374C218.382 394.272 218.139 395.152 217.682 395.911C217.226 396.67 216.573 397.278 215.8 397.663C215.225 397.956 214.596 398.114 213.956 398.128L188.217 398.7C187.529 398.718 186.847 398.567 186.225 398.259C185.439 397.881 184.773 397.273 184.306 396.509C183.839 395.744 183.591 394.855 183.592 393.947V374.416H218.381Z" fill="black"/>
<path d="M219.856 374.416V393.374C219.857 394.272 219.614 395.152 219.157 395.911C218.701 396.67 218.048 397.278 217.275 397.663C216.7 397.956 216.071 398.114 215.431 398.128L189.692 398.7C189.004 398.718 188.322 398.567 187.7 398.259C186.914 397.881 186.248 397.273 185.781 396.509C185.314 395.744 185.066 394.855 185.067 393.947V374.416H219.856Z" fill="#3F3D56"/>
<path d="M536.992 374.416H502.203V398.801H536.992V374.416Z" fill="#3F3D56"/>
<path opacity="0.1" d="M536.992 374.416H502.203V398.801H536.992V374.416Z" fill="black"/>
<path d="M535.517 374.416H500.728V398.801H535.517V374.416Z" fill="#3F3D56"/>
<path opacity="0.1" d="M170.073 205.779V210.215L156.06 209.836V205.779H170.073Z" fill="black"/>
<path d="M262.308 80.8192L245.471 207.777C245.364 208.588 244.976 209.329 244.382 209.859C243.787 210.388 243.027 210.67 242.248 210.649L107.428 206.979L104.869 206.91C104.423 206.899 103.985 206.789 103.582 206.588C103.18 206.387 102.822 206.1 102.533 205.744C102.243 205.388 102.028 204.972 101.902 204.524C101.776 204.075 101.741 203.603 101.801 203.14L120.703 70.2369C120.825 69.4137 121.237 68.6683 121.857 68.148C122.477 67.6278 123.26 67.3704 124.052 67.4268L259.358 77.0415C259.795 77.068 260.221 77.1893 260.611 77.3976C261.001 77.6059 261.345 77.8967 261.622 78.2517C261.899 78.6066 262.103 79.0181 262.222 79.46C262.34 79.9019 262.369 80.3647 262.308 80.8192V80.8192Z" fill="#65617D"/>
<path d="M129.753 76.7628L115.497 193.912L239.401 198.038L254.638 85.015L129.753 76.7628Z" fill="#5DD9C1"/>
<path d="M430.671 74.9513H287.583C285.412 74.9513 283.652 76.7987 283.652 79.0774V205.005C283.652 207.284 285.412 209.131 287.583 209.131H430.671C432.842 209.131 434.602 207.284 434.602 205.005V79.0774C434.602 76.7987 432.842 74.9513 430.671 74.9513Z" fill="#65617D"/>
<path d="M427.957 83.9854H290.777V195.716H427.957V83.9854Z" fill="#5DD9C1"/>
<path opacity="0.1" d="M547.192 203.457V206.391L533.179 206.693V203.457H547.192Z" fill="black"/>
<path d="M610.42 200.98C610.44 201.301 610.398 201.622 610.297 201.925C610.195 202.229 610.036 202.507 609.83 202.745C609.623 202.982 609.373 203.173 609.094 203.306C608.815 203.439 608.514 203.511 608.208 203.519L470.143 206.515C469.569 206.527 469.013 206.312 468.585 205.911C468.156 205.51 467.888 204.954 467.834 204.355L455.968 74.8584C455.938 74.5371 455.972 74.213 456.065 73.9055C456.159 73.5981 456.311 73.3138 456.512 73.0699C456.714 72.826 456.96 72.6275 457.237 72.4865C457.513 72.3455 457.814 72.2649 458.121 72.2496L595.139 65.0966L596.614 65.0192C597.2 64.9868 597.776 65.1947 598.219 65.5991C598.662 66.0035 598.938 66.5728 598.989 67.1868L610.42 200.98Z" fill="#65617D"/>
<path d="M463.852 79.8593L588.988 73.4031L599.557 191.071L475.409 194.167L463.852 79.8593Z" fill="#5DD9C1"/>
<path opacity="0.1" d="M610.42 200.98C610.44 201.301 610.398 201.622 610.297 201.925C610.195 202.229 610.036 202.507 609.83 202.745C609.623 202.982 609.373 203.173 609.094 203.306C608.815 203.439 608.514 203.511 608.208 203.519L595.139 65.0966L596.614 65.0192C597.2 64.9868 597.776 65.1947 598.219 65.5991C598.662 66.0035 598.938 66.5728 598.989 67.1868L610.42 200.98Z" fill="black"/>
<path opacity="0.1" d="M124.074 67.419L107.428 206.979L104.869 206.91C104.423 206.899 103.985 206.789 103.582 206.588C103.18 206.387 102.822 206.1 102.533 205.744C102.243 205.388 102.028 204.972 101.902 204.524C101.776 204.075 101.741 203.603 101.801 203.14L120.703 70.2369C120.824 69.408 121.238 68.6573 121.863 68.1349C122.488 67.6125 123.277 67.3568 124.074 67.419V67.419Z" fill="black"/>
<path opacity="0.1" d="M170.073 237.201H156.06V250.424H170.073V237.201Z" fill="black"/>
<path opacity="0.1" d="M219.856 374.408V378.256L185.067 379.231V374.408H219.856Z" fill="black"/>
<path d="M281.255 241.807V372.016C281.246 372.811 280.947 373.572 280.418 374.141C279.89 374.71 279.173 375.044 278.416 375.074L137.069 379.022H137.032C136.263 379.012 135.527 378.687 134.983 378.115C134.439 377.544 134.129 376.772 134.119 375.964V241.807C134.129 241 134.439 240.228 134.983 239.656C135.527 239.085 136.263 238.76 137.032 238.75H278.342C279.112 238.76 279.847 239.085 280.392 239.656C280.936 240.228 281.246 241 281.255 241.807V241.807Z" fill="#65617D"/>
<path opacity="0.1" d="M137.069 238.75V379.022H137.032C136.263 379.012 135.527 378.687 134.983 378.115C134.439 377.544 134.129 376.772 134.119 375.964V241.807C134.129 241 134.439 240.228 134.983 239.656C135.527 239.085 136.263 238.76 137.032 238.75H137.069Z" fill="black"/>
<path d="M143.522 247.064H274.433V361.829L143.522 364.925V247.064Z" fill="#D4DFEC"/>
<path opacity="0.1" d="M547.192 237.201H533.179V250.687H547.192V237.201Z" fill="black"/>
<path opacity="0.1" d="M535.517 374.408V379.37L500.728 378.395V374.408H535.517Z" fill="black"/>
<path d="M581.428 241.807V375.964C581.419 376.779 581.103 377.557 580.551 378.129C579.999 378.701 579.254 379.022 578.478 379.022V379.022L437.102 375.074C436.345 375.044 435.628 374.71 435.1 374.141C434.571 373.572 434.271 372.811 434.262 372.016V241.807C434.272 241 434.582 240.228 435.126 239.656C435.67 239.085 436.406 238.76 437.176 238.75H578.486C579.26 238.752 580.003 239.073 580.554 239.646C581.104 240.218 581.419 240.994 581.428 241.807V241.807Z" fill="#65617D"/>
<path opacity="0.1" d="M581.428 241.807V375.964C581.419 376.779 581.103 377.557 580.551 378.129C579.999 378.701 579.254 379.022 578.478 379.022V379.022V238.75C579.254 238.75 579.999 239.07 580.551 239.643C581.103 240.215 581.419 240.993 581.428 241.807Z" fill="black"/>
<path d="M572.025 247.064H441.114V361.829L572.025 364.925V247.064Z" fill="#D4DFEC"/>
<path d="M430.604 241.807V372.016C430.595 372.811 430.296 373.572 429.767 374.141C429.238 374.71 428.522 375.044 427.765 375.074L286.418 379.022C285.642 379.022 284.897 378.701 284.345 378.129C283.793 377.557 283.478 376.779 283.468 375.964V241.807C283.477 241 283.787 240.228 284.332 239.656C284.876 239.085 285.611 238.76 286.381 238.75H427.691C428.461 238.76 429.196 239.085 429.74 239.656C430.285 240.228 430.595 241 430.604 241.807V241.807Z" fill="#65617D"/>
<path d="M292.871 247.064H423.782V361.829L292.871 364.925V247.064Z" fill="#D4DFEC"/>
<path opacity="0.1" d="M636.558 413.115V423.179L524.513 424.262L523.319 424.286L480.734 424.696L479.716 424.711L466.773 424.827H466.389L387.489 425.594L257.972 426.856H257.861L224.931 427.181L224.577 427.189L78.2515 428.597V416.986L227.608 415.956H227.962L258.193 415.739H258.333L467.112 414.292H467.326L467.451 414.284H467.798L471.33 414.261H472.407L527.346 413.874L530.591 413.858L531.313 413.85L636.558 413.115Z" fill="black"/>
<path d="M359.367 250.424C380.275 250.424 397.224 232.633 397.224 210.687C397.224 188.742 380.275 170.951 359.367 170.951C338.459 170.951 321.51 188.742 321.51 210.687C321.51 232.633 338.459 250.424 359.367 250.424Z" fill="#FBBEBE"/>
<path d="M397.231 291.971C397.231 291.971 323.847 301.261 330.854 291.971C333.391 288.611 334.092 278.656 333.952 267.315C333.907 263.87 333.789 260.301 333.62 256.748C332.808 239.717 330.854 223.074 330.854 223.074C330.854 223.074 395.019 191.334 387.643 216.493C384.693 226.658 385.659 240.933 387.902 254.333C388.558 258.242 389.318 262.074 390.114 265.713C392.058 274.587 394.434 283.352 397.231 291.971V291.971Z" fill="#FBBEBE"/>
<path opacity="0.1" d="M397.231 291.971C397.231 291.971 323.847 301.261 330.854 291.971C333.391 288.611 334.092 278.656 333.952 267.315C345.14 262.299 359.374 266.038 359.374 266.038C374.361 262.903 383.971 263.514 390.114 265.713C392.058 274.587 394.434 283.352 397.231 291.971V291.971Z" fill="black"/>
<path d="M257.942 427.73V427.08L387.466 425.602L466.382 424.827H466.603L466.522 425.973L466.632 424.827H466.772V424.696L467.783 414.284L468.166 410.343L468.284 409.113L468.388 408.083L472.946 392.128L477.503 376.197L481.339 362.781L487.195 342.282C487.195 342.282 483.876 334.154 482.032 331.831C480.188 329.509 478.344 313.639 478.344 313.639C478.344 313.639 462.605 297.901 455.724 296.09C452.841 295.315 447.147 294.286 441.099 292.993C438.835 292.513 436.512 292.002 434.277 291.445C433.016 291.143 431.777 290.825 430.589 290.508C428.278 289.902 426.001 289.163 423.767 288.294C422.596 287.848 421.482 287.252 420.448 286.521C415.028 282.349 401.442 281.877 400.919 281.877C400.917 281.859 400.917 281.84 400.919 281.822V281.753C400.938 281.428 400.938 281.102 400.919 280.777C400.919 280.468 400.919 280.104 400.852 279.693C400.852 279.57 400.852 279.438 400.801 279.306C400.764 279.028 400.72 278.734 400.653 278.424C400.631 278.286 400.601 278.149 400.565 278.014C400.351 277.081 400.042 276.175 399.643 275.312C399.591 275.188 399.525 275.056 399.466 274.933C399.104 274.217 398.685 273.536 398.212 272.897C398.116 272.765 398.013 272.626 397.902 272.494C397.298 271.746 396.626 271.062 395.896 270.45C395.697 270.288 395.491 270.117 395.277 269.963C395.157 269.861 395.032 269.768 394.901 269.684L394.244 269.235L393.632 268.863C393.094 268.554 392.526 268.252 391.906 267.965C391.714 267.872 391.508 267.787 391.302 267.702C391.095 267.617 390.77 267.485 390.498 267.377H390.453L389.9 267.145C389.48 266.998 389.052 266.866 388.602 266.734L387.916 266.549L387.179 266.371L386.441 266.208C385.704 266.053 384.915 265.914 384.089 265.806L383.248 265.697L382.385 265.604L381.492 265.527L380.224 265.449L378.749 265.395C372.243 265.395 365.756 266.119 359.396 267.555C354.978 266.523 350.452 266.086 345.929 266.255H345.287L344.55 266.301H344.078L343.126 266.394C342.809 266.394 342.485 266.464 342.168 266.51C341.85 266.556 341.519 266.595 341.201 266.649L340.715 266.734C340.235 266.82 339.748 266.913 339.24 267.021C339.077 267.052 338.915 267.091 338.753 267.137C338.111 267.284 337.47 267.462 336.835 267.663C336.518 267.756 336.201 267.865 335.884 267.981C335.722 268.027 335.567 268.089 335.412 268.151L334.94 268.329L334.475 268.523L333.922 268.755C333.642 268.879 333.369 269.01 333.096 269.15C332.941 269.219 332.786 269.297 332.639 269.382C332.491 269.467 332.336 269.537 332.196 269.622C330.529 270.526 328.988 271.667 327.616 273.013L327.24 273.392L326.871 273.787C326.746 273.918 326.628 274.058 326.51 274.197C326.029 274.749 325.581 275.33 325.168 275.939C325.05 276.101 324.939 276.264 324.828 276.434C324.36 277.159 323.937 277.914 323.56 278.695C323.464 278.881 323.375 279.074 323.287 279.26C322.685 280.568 322.192 281.928 321.812 283.324C321.674 283.84 321.549 284.356 321.436 284.872C321.436 284.872 305.822 292.103 292.871 297.336C289.427 298.729 286.182 299.991 283.468 300.943C282.679 301.222 281.941 301.477 281.255 301.717C279.767 302.282 278.219 302.656 276.646 302.832C275.904 302.845 275.164 302.917 274.433 303.049C268.481 304.063 258.281 308.468 257.168 312.888C257.077 313.241 257.052 313.609 257.094 313.972C257.094 313.972 257.094 314.026 257.094 314.057C257.832 319.476 252.669 318.702 252.669 318.702C252.669 318.702 250.825 333.023 248.244 336.894C246.378 339.681 245.102 345.897 244.94 350.588C244.847 352.05 244.956 353.518 245.264 354.947C245.264 354.985 245.264 355.024 245.264 355.055C245.559 356.092 244.851 358.926 243.649 362.556C242.344 366.543 240.441 371.498 238.612 376.173C235.853 383.233 233.257 389.643 233.095 391.052C233.029 391.679 232.837 392.802 232.571 394.249C231.495 400.148 229.105 411.381 227.925 415.925C227.047 419.316 225.771 423.96 224.894 427.15C224.894 427.243 224.842 427.336 224.82 427.421L257.883 427.08V427.73H257.986H257.942Z" fill="#5DD9C1"/>
<path opacity="0.1" d="M270.008 336.484C270.008 336.484 312.047 359.32 327.166 356.611L270.008 336.484Z" fill="black"/>
<path opacity="0.1" d="M355.561 327.194C355.561 327.194 396.494 341.128 410.138 343.064C423.782 344.999 355.561 327.194 355.561 327.194Z" fill="black"/>
<path opacity="0.1" d="M400.963 282.356C379.575 286.49 339.306 285.6 321.9 284.973C328.28 260.975 359.389 269.134 359.389 269.134C397.895 261.068 400.845 277.805 400.963 282.356Z" fill="black"/>
<path d="M400.963 280.808C379.575 284.942 339.306 284.052 321.9 283.425C328.28 259.427 359.389 267.586 359.389 267.586C397.895 259.52 400.845 276.256 400.963 280.808Z" fill="#5DD9C1"/>
<path d="M514.498 386.609C514.498 386.609 539.692 382.544 540.186 394.156C540.68 405.768 527.338 413.881 527.338 413.881L514.498 386.609Z" fill="#FBBEBE"/>
<path opacity="0.1" d="M387.902 254.333C386.818 254.841 385.71 255.291 384.583 255.68C376.632 258.56 368.615 261.463 360.244 262.515C351.873 263.568 343.089 262.639 335.788 258.258C335.021 257.803 334.282 257.299 333.575 256.748C332.764 239.717 330.81 223.074 330.81 223.074C330.81 223.074 394.974 191.334 387.599 216.493C384.664 226.658 385.659 240.933 387.902 254.333Z" fill="black"/>
<path d="M348.982 148.579C347.93 148.871 346.827 148.9 345.761 148.665C344.696 148.43 343.698 147.936 342.846 147.224L344.38 149.461C343.476 149.571 342.56 149.472 341.696 149.171C340.833 148.87 340.042 148.375 339.38 147.72C339.241 149.722 339.32 151.735 339.616 153.719C337.077 153.848 334.578 153.024 332.565 151.397C332.526 152.095 332.691 152.789 333.039 153.386C333.388 153.983 333.901 154.453 334.512 154.733C331.962 154.414 329.389 155.079 327.272 156.604C325.155 158.13 323.639 160.412 323.007 163.024L326.857 163.396C323.831 164.074 321.115 165.813 319.157 168.327C317.977 169.875 317.077 171.857 317.593 173.746C318.109 175.635 320.602 176.842 321.959 175.495C320.029 177.914 318.626 180.746 317.849 183.794C317.072 186.841 316.939 190.031 317.46 193.138C317.811 194.462 317.926 195.842 317.8 197.21C317.556 198.487 316.789 199.594 316.406 200.84C315.668 203.101 316.369 205.555 317.025 207.808L320.484 219.745C321.738 224.057 322.985 228.376 324.622 232.549C325.781 235.187 326.767 237.905 327.572 240.685C328.501 244.432 328.538 248.535 330.522 251.809C331.882 253.87 333.699 255.552 335.817 256.709C343.112 261.091 351.925 262.02 360.274 260.967C368.623 259.914 376.632 257.011 384.575 254.132C386.34 253.574 388.034 252.794 389.62 251.809C395.115 248.031 396.339 240.306 397.364 233.501C398.507 225.915 400.034 218.344 402.741 211.206C404.348 206.956 406.428 202.644 406.074 198.092C405.624 192.046 401.066 187.146 399.938 181.201C399.56 179.213 399.578 177.166 399.99 175.186C400.339 174.006 400.535 172.782 400.572 171.547C400.447 169.055 398.5 167.135 396.671 165.532C392.703 162.054 388.607 158.766 384.384 155.67C384.17 154.122 386.176 153.456 387.083 152.233C388.366 150.507 387.039 147.766 385.092 146.961C383.144 146.156 380.961 146.682 378.933 147.216C379.065 146.127 378.859 145.021 378.345 144.065C377.83 143.108 377.035 142.351 376.078 141.907C375.121 141.463 374.053 141.354 373.033 141.598C372.012 141.842 371.094 142.425 370.415 143.261C369.876 141.964 369.016 140.844 367.923 140.016C366.831 139.188 365.547 138.683 364.205 138.554C359.315 138.151 359.219 142.076 356.092 144.236C352.965 146.396 350.384 143.547 347.979 141.472C347.537 142.645 347.398 143.919 347.574 145.167C347.75 146.414 348.236 147.591 348.982 148.579V148.579Z" fill="#3F3D56"/>
<path d="M533.179 409.833C533.179 409.833 532.523 411.474 531.313 413.85C529.484 417.507 527.256 420.928 524.676 424.046L524.476 424.27H523.282L480.697 424.68H479.679L479.554 424.525L471.294 414.237L468.181 410.359L468.056 410.196L467.79 409.871L467.643 409.685L467.451 409.445L461.396 401.905L463.609 392.229L467.377 375.926L467.473 375.531L468.211 372.434L468.734 370.112L470.49 362.541L476.508 336.491L487.202 342.297L498.479 363.199L504.534 374.424H507.853C508.48 374.424 509.918 375.693 511.363 377.156C511.88 377.675 512.396 378.225 512.838 378.705C514.151 380.129 515.191 381.352 515.191 381.352C515.191 381.352 520.568 381.476 522.013 385.92C522.088 386.135 522.149 386.354 522.198 386.578C522.677 388.324 523.302 390.023 524.063 391.656C525.015 393.831 526.21 396.301 527.419 398.77C529.669 403.299 531.955 407.611 532.796 409.174L532.899 409.368L533.179 409.833Z" fill="#5DD9C1"/>
<path opacity="0.1" d="M469.826 374.881L469.752 375.988V376.065L469.627 377.845L468.646 392.175L467.458 409.438L467.119 414.299L466.382 424.704V424.835L387.466 425.609L257.964 427.08V427.73H257.861V427.08V426.863L258.193 415.747L258.827 394.025L259.373 375.608L259.425 373.774C259.457 372.666 259.704 371.577 260.151 370.573C260.597 369.57 261.234 368.672 262.022 367.935C262.81 367.198 263.734 366.638 264.735 366.288C265.737 365.938 266.796 365.806 267.847 365.901C271.328 366.21 275.849 366.59 281.255 366.992L283.468 367.162C314.687 369.438 372.384 372.38 430.604 368.711C431.829 368.641 433.06 368.564 434.292 368.471C443.319 367.875 452.339 367.108 461.271 366.148C462.4 366.024 463.541 366.161 464.614 366.55C465.687 366.939 466.666 367.57 467.482 368.399C468.297 369.228 468.93 370.234 469.335 371.347C469.74 372.46 469.908 373.653 469.826 374.842V374.881Z" fill="black"/>
<path d="M257.942 427.73V427.08L387.466 425.602L466.382 424.827H466.603V424.696L467.34 414.292L467.658 409.647L468.867 392.144L469.818 378.287V377.946C469.862 377.308 469.835 376.666 469.737 376.034C469.741 376.008 469.741 375.982 469.737 375.957C469.535 374.65 469.028 373.416 468.262 372.365C467.45 371.272 466.386 370.414 465.171 369.872C463.955 369.33 462.628 369.122 461.315 369.268C452.383 370.228 443.363 370.994 434.336 371.59C433.104 371.683 431.873 371.761 430.648 371.83C372.428 375.461 314.732 372.519 283.512 370.282L281.3 370.112C275.894 369.709 271.373 369.338 267.891 369.02C265.976 368.851 264.069 369.432 262.538 370.651C261.008 371.871 259.961 373.642 259.602 375.624C259.527 376.043 259.483 376.467 259.469 376.893L258.967 394.048L258.281 415.778L257.957 426.894V427.111V427.761L257.942 427.73Z" fill="#3F3D56"/>
<path opacity="0.1" d="M470.047 380.307L469.14 392.175L467.79 409.863L467.451 414.292L466.714 424.208L466.669 424.704V424.835L466.559 425.981L466.64 424.835H466.426L387.511 425.609L257.964 427.08V426.863L258.326 415.747L259.063 394.025L259.535 379.587C259.558 378.766 259.777 377.964 260.171 377.254C260.565 376.544 261.123 375.949 261.792 375.523C262.627 374.986 263.604 374.742 264.58 374.826C266.129 374.958 268.031 375.113 270.251 375.283C273.858 375.562 278.305 375.887 283.483 376.227C293.07 376.862 305.1 377.544 318.884 378.101C357.235 379.649 409.01 380.168 458.188 375.647C460.4 375.446 462.687 375.221 464.921 374.997C465.806 374.904 466.697 375.081 467.488 375.508C467.712 375.625 467.924 375.765 468.122 375.926C468.764 376.414 469.273 377.071 469.597 377.83C469.673 377.981 469.734 378.139 469.782 378.302C470.003 378.944 470.094 379.627 470.047 380.307V380.307Z" fill="black"/>
<path opacity="0.1" d="M219.856 390.905V393.375C219.857 394.273 219.614 395.152 219.157 395.911C218.701 396.67 218.048 397.278 217.275 397.663L187.7 398.259C186.914 397.881 186.248 397.273 185.781 396.509C185.314 395.745 185.066 394.855 185.067 393.947V391.625L219.856 390.905Z" fill="black"/>
<path d="M220.225 399.119L181.689 399.893V393.181L220.225 392.407V399.119Z" fill="#3F3D56"/>
<path opacity="0.1" d="M220.225 399.119L181.689 399.893V393.181L220.225 392.407V399.119Z" fill="black"/>
<path d="M221.7 399.119L183.164 399.893V393.181L221.7 392.407V399.119Z" fill="#3F3D56"/>
<g opacity="0.1">
<path opacity="0.1" d="M349.285 146.04C348.564 145.057 348.085 143.903 347.891 142.68C347.713 143.876 347.819 145.099 348.201 146.241C348.567 146.206 348.929 146.138 349.285 146.04Z" fill="black"/>
<path opacity="0.1" d="M339.918 151.18C339.779 150.231 339.688 149.275 339.645 148.316C339.645 149.268 339.645 150.228 339.645 151.188L339.918 151.18Z" fill="black"/>
<path opacity="0.1" d="M400.026 177.013C400.067 176.323 400.156 175.637 400.292 174.961C400.641 173.784 400.839 172.563 400.882 171.331C400.865 171.054 400.826 170.779 400.764 170.51C400.639 171.222 400.439 171.934 400.292 172.639C399.997 174.075 399.908 175.549 400.026 177.013Z" fill="black"/>
<path opacity="0.1" d="M384.686 153.092L385.49 153.704C386.168 153.189 386.802 152.614 387.385 151.985C387.663 151.582 387.835 151.11 387.884 150.615C387.933 150.121 387.858 149.622 387.666 149.167C387.592 149.344 387.498 149.51 387.385 149.663C386.478 150.886 384.472 151.559 384.686 153.092Z" fill="black"/>
<path opacity="0.1" d="M324.083 160.539C323.814 161.104 323.6 161.695 323.442 162.304C324.596 161.628 325.838 161.135 327.129 160.841L324.083 160.539Z" fill="black"/>
<path opacity="0.1" d="M334.254 152.117C333.769 151.837 333.306 151.518 332.867 151.164C332.849 151.471 332.871 151.778 332.934 152.078C333.374 152.056 333.815 152.069 334.254 152.117V152.117Z" fill="black"/>
<path opacity="0.1" d="M406.362 197.728C406.059 201.483 404.393 205.098 403.043 208.659C400.336 215.797 398.81 223.368 397.666 230.962C396.641 237.767 395.454 245.492 389.922 249.262C388.342 250.253 386.65 251.034 384.885 251.585C376.935 254.472 368.918 257.368 360.547 258.42C352.176 259.473 343.392 258.552 336.09 254.17C333.973 253.011 332.156 251.329 330.795 249.27C328.826 245.996 328.789 241.893 327.845 238.146C327.04 235.364 326.054 232.643 324.895 230.002C323.265 225.837 322.011 221.487 320.765 217.206C319.609 213.227 318.456 209.245 317.306 205.261C316.927 204.062 316.645 202.832 316.465 201.584C316.177 203.565 316.738 205.64 317.306 207.583C318.456 211.573 319.609 215.554 320.765 219.528C322.011 223.84 323.265 228.16 324.895 232.324C326.054 234.965 327.04 237.686 327.845 240.468C328.774 244.215 328.811 248.318 330.795 251.593C332.156 253.652 333.973 255.333 336.09 256.493C343.392 260.874 352.198 261.796 360.547 260.743C368.896 259.69 376.905 256.795 384.885 253.907C386.65 253.356 388.342 252.576 389.922 251.585C395.417 247.815 396.641 240.089 397.666 233.284C398.81 225.69 400.336 218.119 403.043 210.982C404.651 206.739 406.731 202.427 406.377 197.868C406.377 197.821 406.362 197.775 406.362 197.728Z" fill="black"/>
<path opacity="0.1" d="M318.087 194.733C318.087 194.733 318.087 194.678 318.087 194.647C318.22 193.282 318.105 191.903 317.748 190.583C317.601 189.734 317.505 188.875 317.461 188.013C317.376 189.65 317.472 191.292 317.748 192.906C317.866 193.509 317.999 194.121 318.087 194.733Z" fill="black"/>
<path opacity="0.1" d="M320.337 175.797C320.904 174.797 321.548 173.847 322.262 172.956C320.912 174.311 318.419 173.103 317.896 171.222C317.703 171.983 317.703 172.784 317.896 173.545C318.077 174.113 318.399 174.62 318.827 175.016C319.256 175.411 319.777 175.681 320.337 175.797V175.797Z" fill="black"/>
</g>
<path opacity="0.1" d="M504.541 374.416C504.541 374.416 506.879 383.319 504.541 391.06C502.203 398.801 504.541 374.416 504.541 374.416Z" fill="black"/>
<path opacity="0.1" d="M514.498 383.497C514.498 383.497 515.479 394.799 513.266 396.804C511.054 398.809 514.498 383.497 514.498 383.497Z" fill="black"/>
<path d="M146.76 265.418L221.7 264.644" stroke="#5DD9C1" stroke-width="2" stroke-miterlimit="10"/>
<path d="M146.76 275.072L221.7 274.305" stroke="#5DD9C1" stroke-width="2" stroke-miterlimit="10"/>
<path d="M146.76 284.733L221.7 283.959" stroke="#5DD9C1" stroke-width="2" stroke-miterlimit="10"/>
</g>
<defs>
<clipPath id="clip0">
<rect width="768" height="429" fill="white"/>
</clipPath>
</defs>
</svg>
